<?xml version="1.0" encoding="UTF-8"?>
<svg xmlns="http://www.w3.org/2000/svg" viewBox="0 0 327.08400000000006 43.64">
  <path fill="#ffffff" d="M0,27.33C0,17.34,6.02,11.01,15.49,11.01c8.45,0,13.89,5.12,13.89,13.18h-4.74c-.06-5.25-3.58-8.58-9.09-8.58-6.34,0-10.43,4.54-10.43,11.71s3.97,11.71,10.11,11.71c5.76,0,9.47-3.26,9.54-8.45h4.74c0,7.94-5.63,13.05-14.4,13.05-9.22,0-15.1-6.33-15.1-16.32Z"/>
  <path fill="#ffffff" d="M37.5,11.52h5.12l-.13,9.15h.06c1.47-5.5,4.74-9.66,11.52-9.66s10.88,4.74,10.88,12.35c0,2.18-.19,4.48-.32,5.63h-4.67c.13-.96.26-2.56.26-4.54,0-5.82-2.18-8.83-7.36-8.83-6.46,0-10.24,5.63-10.24,13.5v14.01h-5.12V11.52Z"/>
  <path fill="#ffffff" d="M71.36,27.39c0-9.98,6.21-16.38,16-16.38s16,6.4,16,16.38-6.21,16.25-16,16.25-16-6.33-16-16.25ZM98.24,27.39c0-7.17-4.22-11.78-10.88-11.78s-10.88,4.61-10.88,11.78,4.22,11.65,10.88,11.65,10.88-4.54,10.88-11.65Z"/>
  <path fill="#ffffff" d="M109.31,32.57h4.74c0,4.22,2.56,6.72,9.15,6.72s9.66-1.98,9.66-5.38c0-1.28-.38-2.5-1.98-3.26-1.47-.7-4.8-1.09-8.7-1.47-5.18-.45-8.32-1.09-10.24-2.5-1.73-1.28-2.62-3.58-2.62-5.89,0-5.95,5.44-9.79,13.89-9.79,9.47,0,13.44,4.16,13.44,11.26h-4.74c-.06-4.74-2.88-6.91-8.51-6.91s-8.96,1.98-8.96,5.12c0,1.28.19,2.82,2.05,3.58,1.54.64,4.67,1.02,8.83,1.47,4.93.51,7.36.96,9.54,2.18,2.11,1.22,3.13,3.65,3.13,6.02,0,6.21-5.12,9.92-14.72,9.92-10.62,0-13.95-4.99-13.95-11.07Z"/>
  <path fill="#ffffff" d="M144.38,32.57h4.74c0,4.22,2.56,6.72,9.15,6.72s9.66-1.98,9.66-5.38c0-1.28-.38-2.5-1.98-3.26-1.47-.7-4.8-1.09-8.7-1.47-5.18-.45-8.32-1.09-10.24-2.5-1.73-1.28-2.62-3.58-2.62-5.89,0-5.95,5.44-9.79,13.89-9.79,9.47,0,13.44,4.16,13.44,11.26h-4.74c-.06-4.74-2.88-6.91-8.51-6.91s-8.96,1.98-8.96,5.12c0,1.28.19,2.82,2.05,3.58,1.54.64,4.67,1.02,8.83,1.47,4.93.51,7.36.96,9.54,2.18,2.11,1.22,3.14,3.65,3.14,6.02,0,6.21-5.12,9.92-14.72,9.92-10.62,0-13.95-4.99-13.95-11.07Z"/>
  <path fill="#6366F1" d="M192.73 43.53C198.80 43.53 202.03 40.89 203.02 36.80L203.09 36.80C203.09 38.84 202.89 41.61 202.69 43L215.76 43L215.76 23.79C215.76 15.15 210.15 9.87 198.34 9.87C187.12 9.87 181.64 14.16 181.64 21.09C181.64 21.81 181.71 22.61 181.84 23.27L193.26 23.27C193.19 22.61 193.19 22.08 193.19 21.95C193.19 19.70 194.77 18.38 197.68 18.38C201.11 18.38 202.69 19.70 202.69 22.74L202.69 25.11L192.27 25.11C184.15 25.11 180.65 28.88 180.65 34.02C180.65 39.63 184.68 43.53 192.73 43.53ZM196.75 36.14C194.11 36.14 192.53 35.01 192.53 33.03C192.53 31.45 193.78 30.39 195.96 30.39L202.69 30.39L202.69 31.25C202.69 34.35 200.45 36.14 196.75 36.14Z M231.06 43.53C237.47 43.53 241.49 40.16 242.88 34.29L243.01 34.29C242.94 37.85 242.75 40.89 242.55 43L255.62 43L255.62 10.40L242.55 10.40L242.55 24.39C242.55 29.93 240.24 32.64 236.21 32.64C233.04 32.64 231.26 30.92 231.26 27.42L231.26 10.40L218.19 10.40L218.19 30.13C218.19 39.11 222.81 43.53 231.06 43.53Z M276.46 43.53C280.03 43.53 283.00 43.07 283.99 42.80L283.99 33.43C283.13 33.63 281.21 33.83 279.70 33.83C276 33.83 274.75 32.97 274.75 30.26L274.75 20.23L284.38 20.23L284.38 10.40L274.75 10.40L274.75 3.00L263.99 3.00L263.53 7.16C263.33 9.54 262.54 10.40 260.75 10.40L257.19 10.40L257.19 20.23L261.68 20.23L261.68 31.52C261.68 38.91 265.51 43.53 276.46 43.53Z M286.88 43L299.95 43L299.95 27.82C299.95 23.07 302.32 20.76 306.15 20.76C309.52 20.76 311.30 22.34 311.30 25.91L311.30 43L324.37 43L324.37 22.61C324.37 14.29 320.01 9.87 312.09 9.87C304.77 9.87 301.27 13.50 299.75 19.11L299.62 19.11C299.82 16.14 299.95 12.44 299.95 11.19L299.95-2.74L286.88-2.74Z"/>
</svg>
