<?xml version="1.0" encoding="UTF-8"?>
<svg id="Layer_2" data-name="Layer 2" xmlns="http://www.w3.org/2000/svg" viewBox="0 0 206.92 56.74">
  <defs>
    <style>
      .cls-1 {
        fill: #ffffff;
      }
    </style>
  </defs>
  <g id="Layer_1-2" data-name="Layer 1">
    <g>
      <g>
        <path class="cls-1" d="M64.65,35.65c0-4.99,3.39-8.64,11.26-8.64h10.11v-2.3c0-2.94-1.54-4.22-4.86-4.22-2.82,0-4.35,1.28-4.35,3.46,0,.13,0,.64.06,1.28h-11.07c-.13-.64-.19-1.41-.19-2.11,0-6.72,5.31-10.88,16.19-10.88,11.46,0,16.89,5.12,16.89,13.5v18.62h-12.67c.19-1.34.38-4.03.38-6.02h-.06c-.96,3.97-4.1,6.53-9.98,6.53-7.81,0-11.71-3.78-11.71-9.21ZM86.03,32.96v-.83h-6.53c-2.11,0-3.33,1.02-3.33,2.56,0,1.92,1.54,3.01,4.1,3.01,3.58,0,5.76-1.73,5.76-4.74Z"/>
        <path class="cls-1" d="M102.03,31.87V12.74h12.67v16.51c0,3.39,1.73,5.06,4.8,5.06,3.9,0,6.14-2.62,6.14-8v-13.57h12.67v31.61h-12.67c.19-2.05.38-4.99.45-8.45h-.13c-1.34,5.7-5.25,8.96-11.46,8.96-8,0-12.48-4.29-12.48-12.99Z"/>
        <path class="cls-1" d="M145.17,33.21v-10.94h-4.35v-9.54h3.46c1.73,0,2.5-.83,2.69-3.14l.45-4.03h10.43v7.17h9.34v9.54h-9.34v9.73c0,2.62,1.22,3.46,4.8,3.46,1.47,0,3.33-.19,4.16-.38v9.09c-.96.26-3.84.7-7.29.7-10.62,0-14.33-4.48-14.33-11.65Z"/>
        <path class="cls-1" d="M170.57,0h12.67v13.5c0,1.22-.13,4.8-.32,7.68h.13c1.47-5.44,4.86-8.96,11.97-8.96,7.68,0,11.9,4.29,11.9,12.35v19.77h-12.67v-16.57c0-3.46-1.73-4.99-4.99-4.99-3.71,0-6.02,2.24-6.02,6.85v14.72h-12.67V0Z"/>
      </g>
      <path class="cls-1" d="M0,.5v56.25h56.25V.5H0ZM36.15,44.57l-8-8-8.09,8.09-7.99-7.99,8.09-8.09-7.98-7.98,7.99-7.99,7.98,7.98,7.89-7.89,7.99,7.99-7.89,7.89,8,8-7.99,7.99Z"/>
    </g>
  </g>
</svg>